<mxfile host="65bd71144e" pages="6">
    <diagram id="n_CkvLJpwS5fgJJ462_s" name="Page-1">
        <mxGraphModel dx="1066" dy="1712" grid="1" gridSize="10" guides="1" tooltips="1" connect="1" arrows="1" fold="1" page="1" pageScale="1" pageWidth="850" pageHeight="1100" math="0" shadow="0">
            <root>
                <mxCell id="0"/>
                <mxCell id="1" parent="0"/>
                <mxCell id="RgC7e9XU-hddSOGAYbeP-3" style="edgeStyle=orthogonalEdgeStyle;rounded=0;orthogonalLoop=1;jettySize=auto;html=1;fontSize=25;" parent="1" source="vNuJrk4g4Ktshs3_nOTP-4" target="RgC7e9XU-hddSOGAYbeP-1" edge="1">
                    <mxGeometry relative="1" as="geometry">
                        <mxPoint x="670" y="330" as="targetPoint"/>
                    </mxGeometry>
                </mxCell>
                <mxCell id="RgC7e9XU-hddSOGAYbeP-4" style="edgeStyle=orthogonalEdgeStyle;rounded=0;orthogonalLoop=1;jettySize=auto;html=1;entryX=0;entryY=0.5;entryDx=0;entryDy=0;fontSize=25;" parent="1" source="vNuJrk4g4Ktshs3_nOTP-4" target="RgC7e9XU-hddSOGAYbeP-2" edge="1">
                    <mxGeometry relative="1" as="geometry">
                        <Array as="points">
                            <mxPoint x="435" y="470"/>
                            <mxPoint x="435" y="630"/>
                        </Array>
                    </mxGeometry>
                </mxCell>
                <mxCell id="vNuJrk4g4Ktshs3_nOTP-4" value="" style="rounded=0;whiteSpace=wrap;html=1;fontSize=20;" parent="1" vertex="1">
                    <mxGeometry x="10" y="350" width="180" height="200" as="geometry"/>
                </mxCell>
                <mxCell id="7guBYv3pXB49Cvr9zloR-1" value="Mobile client" style="sketch=0;outlineConnect=0;fontColor=#232F3E;gradientColor=none;strokeColor=#232F3E;fillColor=#ffffff;dashed=0;verticalLabelPosition=bottom;verticalAlign=top;align=center;html=1;fontSize=12;fontStyle=0;aspect=fixed;shape=mxgraph.aws4.resourceIcon;resIcon=mxgraph.aws4.mobile_client;" parent="1" vertex="1">
                    <mxGeometry x="100" y="440" width="60" height="60" as="geometry"/>
                </mxCell>
                <mxCell id="7guBYv3pXB49Cvr9zloR-2" value="Client" style="sketch=0;outlineConnect=0;fontColor=#232F3E;gradientColor=none;strokeColor=#232F3E;fillColor=#ffffff;dashed=0;verticalLabelPosition=bottom;verticalAlign=top;align=center;html=1;fontSize=12;fontStyle=0;aspect=fixed;shape=mxgraph.aws4.resourceIcon;resIcon=mxgraph.aws4.client;" parent="1" vertex="1">
                    <mxGeometry x="50" y="390" width="60" height="60" as="geometry"/>
                </mxCell>
                <mxCell id="RgC7e9XU-hddSOGAYbeP-5" style="edgeStyle=orthogonalEdgeStyle;rounded=0;orthogonalLoop=1;jettySize=auto;html=1;entryX=1;entryY=0.355;entryDx=0;entryDy=0;entryPerimeter=0;fontSize=25;" parent="1" source="RgC7e9XU-hddSOGAYbeP-1" target="vNuJrk4g4Ktshs3_nOTP-4" edge="1">
                    <mxGeometry relative="1" as="geometry">
                        <Array as="points">
                            <mxPoint x="400" y="320"/>
                            <mxPoint x="400" y="421"/>
                        </Array>
                    </mxGeometry>
                </mxCell>
                <mxCell id="RgC7e9XU-hddSOGAYbeP-1" value="&lt;font style=&quot;font-size: 25px;&quot;&gt;Java&lt;br&gt;backend&lt;/font&gt;" style="rounded=1;whiteSpace=wrap;html=1;" parent="1" vertex="1">
                    <mxGeometry x="680" y="300" width="120" height="60" as="geometry"/>
                </mxCell>
                <mxCell id="RgC7e9XU-hddSOGAYbeP-6" style="edgeStyle=orthogonalEdgeStyle;rounded=0;orthogonalLoop=1;jettySize=auto;html=1;entryX=1;entryY=0.75;entryDx=0;entryDy=0;fontSize=25;" parent="1" source="RgC7e9XU-hddSOGAYbeP-2" target="vNuJrk4g4Ktshs3_nOTP-4" edge="1">
                    <mxGeometry relative="1" as="geometry">
                        <Array as="points">
                            <mxPoint x="400" y="650"/>
                            <mxPoint x="400" y="500"/>
                        </Array>
                    </mxGeometry>
                </mxCell>
                <mxCell id="RgC7e9XU-hddSOGAYbeP-2" value="&lt;font style=&quot;font-size: 25px;&quot;&gt;.NET&lt;br&gt;backend&lt;/font&gt;" style="rounded=1;whiteSpace=wrap;html=1;" parent="1" vertex="1">
                    <mxGeometry x="680" y="600" width="120" height="60" as="geometry"/>
                </mxCell>
                <mxCell id="RgC7e9XU-hddSOGAYbeP-7" value="&lt;span style=&quot;color: rgb(36, 36, 36); font-family: -apple-system, BlinkMacSystemFont, &amp;quot;Segoe UI&amp;quot;, system-ui, &amp;quot;Apple Color Emoji&amp;quot;, &amp;quot;Segoe UI Emoji&amp;quot;, &amp;quot;Segoe UI Web&amp;quot;, sans-serif; font-size: 14px; background-color: rgb(255, 255, 255);&quot;&gt;1 - Interoperability&lt;br&gt;2- d&lt;/span&gt;&lt;span style=&quot;background-color: initial; font-family: -apple-system, BlinkMacSystemFont, &amp;quot;Segoe UI&amp;quot;, system-ui, &amp;quot;Apple Color Emoji&amp;quot;, &amp;quot;Segoe UI Emoji&amp;quot;, &amp;quot;Segoe UI Web&amp;quot;, sans-serif; font-size: 14px;&quot;&gt;ifferent auth schemes&amp;nbsp;&lt;br&gt;&lt;/span&gt;&lt;span style=&quot;color: rgb(36, 36, 36); font-family: -apple-system, BlinkMacSystemFont, &amp;quot;Segoe UI&amp;quot;, system-ui, &amp;quot;Apple Color Emoji&amp;quot;, &amp;quot;Segoe UI Emoji&amp;quot;, &amp;quot;Segoe UI Web&amp;quot;, sans-serif; font-size: 14px; background-color: rgb(255, 255, 255);&quot;&gt;3 - Coupling&lt;br&gt;4 - timeout ?&lt;br&gt;5 - Scaling ?&lt;br&gt;6 - Protocols&lt;br&gt;7 - Security&lt;br&gt;8 - Logging?&lt;br&gt;9 - availability&lt;br&gt;10 - Refactor?&lt;br&gt;11 - Routing&lt;br&gt;12 - SSL&amp;nbsp;&lt;br&gt;&lt;br&gt;&lt;/span&gt;" style="text;html=1;strokeColor=none;fillColor=none;align=left;verticalAlign=middle;whiteSpace=wrap;rounded=0;fontSize=25;" parent="1" vertex="1">
                    <mxGeometry x="40" y="-50" width="320" height="360" as="geometry"/>
                </mxCell>
                <mxCell id="RgC7e9XU-hddSOGAYbeP-8" value="Challenges" style="text;html=1;strokeColor=none;fillColor=none;align=center;verticalAlign=middle;whiteSpace=wrap;rounded=0;fontSize=25;" parent="1" vertex="1">
                    <mxGeometry x="70" y="-90" width="60" height="30" as="geometry"/>
                </mxCell>
                <mxCell id="RgC7e9XU-hddSOGAYbeP-9" value="Python&lt;br&gt;backend" style="rounded=1;whiteSpace=wrap;html=1;fontSize=25;" parent="1" vertex="1">
                    <mxGeometry x="680" y="450" width="120" height="60" as="geometry"/>
                </mxCell>
            </root>
        </mxGraphModel>
    </diagram>
    <diagram id="VmC_gWKua4YWhaURCvEe" name="Page-2">
        <mxGraphModel dx="817" dy="612" grid="1" gridSize="10" guides="1" tooltips="1" connect="1" arrows="1" fold="1" page="1" pageScale="1" pageWidth="850" pageHeight="1100" math="0" shadow="0">
            <root>
                <mxCell id="0"/>
                <mxCell id="1" parent="0"/>
                <mxCell id="LUA67IxY6zVVOQO_yjkY-1" style="edgeStyle=orthogonalEdgeStyle;rounded=0;orthogonalLoop=1;jettySize=auto;html=1;entryX=0;entryY=0.5;entryDx=0;entryDy=0;fontSize=25;" parent="1" source="Bya7wkuylD8PptncgJoG-1" target="Bya7wkuylD8PptncgJoG-4" edge="1">
                    <mxGeometry relative="1" as="geometry"/>
                </mxCell>
                <mxCell id="Bya7wkuylD8PptncgJoG-1" value="Client" style="rounded=0;whiteSpace=wrap;html=1;fontSize=25;" parent="1" vertex="1">
                    <mxGeometry x="70" y="410" width="120" height="60" as="geometry"/>
                </mxCell>
                <mxCell id="_ToJbP1sv4KquQ2Vkzzi-6" style="edgeStyle=orthogonalEdgeStyle;rounded=0;orthogonalLoop=1;jettySize=auto;html=1;entryX=1.003;entryY=0.41;entryDx=0;entryDy=0;entryPerimeter=0;fontSize=25;" parent="1" source="Bya7wkuylD8PptncgJoG-2" target="Bya7wkuylD8PptncgJoG-4" edge="1">
                    <mxGeometry relative="1" as="geometry">
                        <Array as="points">
                            <mxPoint x="570" y="350"/>
                            <mxPoint x="570" y="460"/>
                        </Array>
                    </mxGeometry>
                </mxCell>
                <mxCell id="Bya7wkuylD8PptncgJoG-2" value="Service A" style="rounded=1;whiteSpace=wrap;html=1;fontSize=25;" parent="1" vertex="1">
                    <mxGeometry x="650" y="310" width="120" height="60" as="geometry"/>
                </mxCell>
                <mxCell id="yHZay4-oKg_jci_iVTNI-2" style="edgeStyle=orthogonalEdgeStyle;rounded=0;orthogonalLoop=1;jettySize=auto;html=1;entryX=1.023;entryY=0.641;entryDx=0;entryDy=0;entryPerimeter=0;fontSize=25;" parent="1" source="Bya7wkuylD8PptncgJoG-3" target="Bya7wkuylD8PptncgJoG-4" edge="1">
                    <mxGeometry relative="1" as="geometry">
                        <Array as="points">
                            <mxPoint x="610" y="562"/>
                            <mxPoint x="610" y="562"/>
                        </Array>
                    </mxGeometry>
                </mxCell>
                <mxCell id="Bya7wkuylD8PptncgJoG-3" value="Service B" style="rounded=1;whiteSpace=wrap;html=1;fontSize=25;" parent="1" vertex="1">
                    <mxGeometry x="650" y="520" width="120" height="60" as="geometry"/>
                </mxCell>
                <mxCell id="LUA67IxY6zVVOQO_yjkY-4" style="edgeStyle=orthogonalEdgeStyle;rounded=0;orthogonalLoop=1;jettySize=auto;html=1;entryX=0.5;entryY=0;entryDx=0;entryDy=0;fontSize=25;" parent="1" source="Bya7wkuylD8PptncgJoG-4" target="LUA67IxY6zVVOQO_yjkY-3" edge="1">
                    <mxGeometry relative="1" as="geometry"/>
                </mxCell>
                <mxCell id="_ToJbP1sv4KquQ2Vkzzi-1" style="edgeStyle=orthogonalEdgeStyle;rounded=0;orthogonalLoop=1;jettySize=auto;html=1;entryX=0.5;entryY=1;entryDx=0;entryDy=0;fontSize=25;" parent="1" source="Bya7wkuylD8PptncgJoG-4" target="Bya7wkuylD8PptncgJoG-1" edge="1">
                    <mxGeometry relative="1" as="geometry">
                        <Array as="points">
                            <mxPoint x="130" y="540"/>
                        </Array>
                    </mxGeometry>
                </mxCell>
                <mxCell id="_ToJbP1sv4KquQ2Vkzzi-3" style="edgeStyle=orthogonalEdgeStyle;rounded=0;orthogonalLoop=1;jettySize=auto;html=1;entryX=0;entryY=0.5;entryDx=0;entryDy=0;fontSize=25;" parent="1" source="Bya7wkuylD8PptncgJoG-4" target="Bya7wkuylD8PptncgJoG-2" edge="1">
                    <mxGeometry relative="1" as="geometry">
                        <Array as="points">
                            <mxPoint x="560" y="440"/>
                            <mxPoint x="560" y="340"/>
                        </Array>
                    </mxGeometry>
                </mxCell>
                <mxCell id="_ToJbP1sv4KquQ2Vkzzi-4" style="edgeStyle=orthogonalEdgeStyle;rounded=0;orthogonalLoop=1;jettySize=auto;html=1;entryX=0;entryY=0.5;entryDx=0;entryDy=0;fontSize=25;" parent="1" source="Bya7wkuylD8PptncgJoG-4" target="Bya7wkuylD8PptncgJoG-3" edge="1">
                    <mxGeometry relative="1" as="geometry">
                        <Array as="points">
                            <mxPoint x="570" y="520"/>
                            <mxPoint x="570" y="550"/>
                        </Array>
                    </mxGeometry>
                </mxCell>
                <mxCell id="VH2LL-Mo50xLLQnpKled-2" style="edgeStyle=orthogonalEdgeStyle;rounded=0;orthogonalLoop=1;jettySize=auto;html=1;fontSize=25;" parent="1" source="Bya7wkuylD8PptncgJoG-4" target="VH2LL-Mo50xLLQnpKled-1" edge="1">
                    <mxGeometry relative="1" as="geometry"/>
                </mxCell>
                <mxCell id="Bya7wkuylD8PptncgJoG-4" value="" style="rounded=0;whiteSpace=wrap;html=1;fontSize=25;" parent="1" vertex="1">
                    <mxGeometry x="340" y="280" width="150" height="440" as="geometry"/>
                </mxCell>
                <mxCell id="LUA67IxY6zVVOQO_yjkY-2" value="SSL&lt;br&gt;Offloading" style="text;html=1;strokeColor=none;fillColor=none;align=center;verticalAlign=middle;whiteSpace=wrap;rounded=0;fontSize=25;" parent="1" vertex="1">
                    <mxGeometry x="210" y="330" width="60" height="30" as="geometry"/>
                </mxCell>
                <mxCell id="LUA67IxY6zVVOQO_yjkY-3" value="Logging" style="text;html=1;strokeColor=none;fillColor=none;align=center;verticalAlign=middle;whiteSpace=wrap;rounded=0;fontSize=25;" parent="1" vertex="1">
                    <mxGeometry x="250" y="760" width="90" height="30" as="geometry"/>
                </mxCell>
                <mxCell id="_ToJbP1sv4KquQ2Vkzzi-2" value="Response&lt;br&gt;caching" style="text;html=1;strokeColor=none;fillColor=none;align=center;verticalAlign=middle;whiteSpace=wrap;rounded=0;fontSize=25;" parent="1" vertex="1">
                    <mxGeometry x="190" y="560" width="60" height="30" as="geometry"/>
                </mxCell>
                <mxCell id="_ToJbP1sv4KquQ2Vkzzi-5" value="Routing" style="text;html=1;strokeColor=none;fillColor=none;align=center;verticalAlign=middle;whiteSpace=wrap;rounded=0;fontSize=25;" parent="1" vertex="1">
                    <mxGeometry x="520" y="300" width="110" height="30" as="geometry"/>
                </mxCell>
                <mxCell id="VH2LL-Mo50xLLQnpKled-1" value="Identity&lt;br&gt;provider" style="text;html=1;strokeColor=none;fillColor=none;align=center;verticalAlign=middle;whiteSpace=wrap;rounded=0;fontSize=25;" parent="1" vertex="1">
                    <mxGeometry x="350" y="90" width="110" height="60" as="geometry"/>
                </mxCell>
                <mxCell id="VH2LL-Mo50xLLQnpKled-3" value="Authentication" style="text;html=1;strokeColor=none;fillColor=none;align=center;verticalAlign=middle;whiteSpace=wrap;rounded=0;fontSize=25;" parent="1" vertex="1">
                    <mxGeometry x="470" y="200" width="60" height="30" as="geometry"/>
                </mxCell>
                <mxCell id="VH2LL-Mo50xLLQnpKled-5" value="API&lt;br&gt;gateway" style="text;html=1;strokeColor=none;fillColor=none;align=center;verticalAlign=middle;whiteSpace=wrap;rounded=0;fontSize=25;" parent="1" vertex="1">
                    <mxGeometry x="385" y="485" width="60" height="30" as="geometry"/>
                </mxCell>
                <mxCell id="yHZay4-oKg_jci_iVTNI-1" value="Service C" style="rounded=1;whiteSpace=wrap;html=1;fontSize=25;" parent="1" vertex="1">
                    <mxGeometry x="650" y="420" width="120" height="60" as="geometry"/>
                </mxCell>
            </root>
        </mxGraphModel>
    </diagram>
    <diagram id="4LaALeORXvaJ5u5JUXfv" name="Page-3">
        <mxGraphModel dx="817" dy="612" grid="1" gridSize="10" guides="1" tooltips="1" connect="1" arrows="1" fold="1" page="1" pageScale="1" pageWidth="850" pageHeight="1100" math="0" shadow="0">
            <root>
                <mxCell id="0"/>
                <mxCell id="1" parent="0"/>
                <mxCell id="FS7tIi85vNFTXQEx-V3D-12" style="edgeStyle=orthogonalEdgeStyle;rounded=0;orthogonalLoop=1;jettySize=auto;html=1;fontSize=25;" parent="1" source="FS7tIi85vNFTXQEx-V3D-1" target="FS7tIi85vNFTXQEx-V3D-5" edge="1">
                    <mxGeometry relative="1" as="geometry">
                        <Array as="points">
                            <mxPoint x="300" y="450"/>
                            <mxPoint x="300" y="325"/>
                        </Array>
                    </mxGeometry>
                </mxCell>
                <mxCell id="FS7tIi85vNFTXQEx-V3D-1" value="" style="rounded=0;whiteSpace=wrap;html=1;fontSize=20;" parent="1" vertex="1">
                    <mxGeometry x="10" y="350" width="180" height="200" as="geometry"/>
                </mxCell>
                <mxCell id="FS7tIi85vNFTXQEx-V3D-2" value="Mobile client" style="sketch=0;outlineConnect=0;fontColor=#232F3E;gradientColor=none;strokeColor=#232F3E;fillColor=#ffffff;dashed=0;verticalLabelPosition=bottom;verticalAlign=top;align=center;html=1;fontSize=12;fontStyle=0;aspect=fixed;shape=mxgraph.aws4.resourceIcon;resIcon=mxgraph.aws4.mobile_client;" parent="1" vertex="1">
                    <mxGeometry x="100" y="440" width="60" height="60" as="geometry"/>
                </mxCell>
                <mxCell id="FS7tIi85vNFTXQEx-V3D-3" value="Client" style="sketch=0;outlineConnect=0;fontColor=#232F3E;gradientColor=none;strokeColor=#232F3E;fillColor=#ffffff;dashed=0;verticalLabelPosition=bottom;verticalAlign=top;align=center;html=1;fontSize=12;fontStyle=0;aspect=fixed;shape=mxgraph.aws4.resourceIcon;resIcon=mxgraph.aws4.client;" parent="1" vertex="1">
                    <mxGeometry x="50" y="390" width="60" height="60" as="geometry"/>
                </mxCell>
                <mxCell id="FS7tIi85vNFTXQEx-V3D-17" style="edgeStyle=orthogonalEdgeStyle;rounded=0;orthogonalLoop=1;jettySize=auto;html=1;entryX=0;entryY=0.25;entryDx=0;entryDy=0;fontSize=25;" parent="1" source="FS7tIi85vNFTXQEx-V3D-5" target="FS7tIi85vNFTXQEx-V3D-16" edge="1">
                    <mxGeometry relative="1" as="geometry"/>
                </mxCell>
                <mxCell id="FS7tIi85vNFTXQEx-V3D-21" style="edgeStyle=orthogonalEdgeStyle;rounded=0;orthogonalLoop=1;jettySize=auto;html=1;entryX=0;entryY=0.25;entryDx=0;entryDy=0;fontSize=25;" parent="1" source="FS7tIi85vNFTXQEx-V3D-5" target="FS7tIi85vNFTXQEx-V3D-19" edge="1">
                    <mxGeometry relative="1" as="geometry">
                        <Array as="points">
                            <mxPoint x="690" y="370"/>
                            <mxPoint x="690" y="445"/>
                        </Array>
                    </mxGeometry>
                </mxCell>
                <mxCell id="FS7tIi85vNFTXQEx-V3D-5" value="API" style="rounded=0;whiteSpace=wrap;html=1;fontSize=25;" parent="1" vertex="1">
                    <mxGeometry x="510" y="270" width="120" height="110" as="geometry"/>
                </mxCell>
                <mxCell id="FS7tIi85vNFTXQEx-V3D-13" style="edgeStyle=orthogonalEdgeStyle;rounded=0;orthogonalLoop=1;jettySize=auto;html=1;entryX=1;entryY=0.75;entryDx=0;entryDy=0;fontSize=25;" parent="1" source="FS7tIi85vNFTXQEx-V3D-6" target="FS7tIi85vNFTXQEx-V3D-1" edge="1">
                    <mxGeometry relative="1" as="geometry">
                        <Array as="points">
                            <mxPoint x="570" y="470"/>
                            <mxPoint x="365" y="470"/>
                            <mxPoint x="365" y="500"/>
                        </Array>
                    </mxGeometry>
                </mxCell>
                <mxCell id="FS7tIi85vNFTXQEx-V3D-6" value="Main" style="text;html=1;strokeColor=none;fillColor=none;align=center;verticalAlign=middle;whiteSpace=wrap;rounded=0;fontSize=25;" parent="1" vertex="1">
                    <mxGeometry x="540" y="380" width="60" height="30" as="geometry"/>
                </mxCell>
                <mxCell id="FS7tIi85vNFTXQEx-V3D-7" value="" style="endArrow=none;html=1;rounded=0;fontSize=25;" parent="1" edge="1">
                    <mxGeometry width="50" height="50" relative="1" as="geometry">
                        <mxPoint x="530" y="350" as="sourcePoint"/>
                        <mxPoint x="610" y="350" as="targetPoint"/>
                    </mxGeometry>
                </mxCell>
                <mxCell id="FS7tIi85vNFTXQEx-V3D-8" value="" style="endArrow=none;html=1;rounded=0;fontSize=25;" parent="1" edge="1">
                    <mxGeometry width="50" height="50" relative="1" as="geometry">
                        <mxPoint x="530" y="360" as="sourcePoint"/>
                        <mxPoint x="610" y="360" as="targetPoint"/>
                    </mxGeometry>
                </mxCell>
                <mxCell id="FS7tIi85vNFTXQEx-V3D-9" value="" style="endArrow=none;html=1;rounded=0;fontSize=25;" parent="1" edge="1">
                    <mxGeometry width="50" height="50" relative="1" as="geometry">
                        <mxPoint x="530" y="370" as="sourcePoint"/>
                        <mxPoint x="610" y="370" as="targetPoint"/>
                    </mxGeometry>
                </mxCell>
                <mxCell id="FS7tIi85vNFTXQEx-V3D-10" value="" style="rounded=0;whiteSpace=wrap;html=1;fontSize=25;" parent="1" vertex="1">
                    <mxGeometry x="320" y="200" width="65" height="500" as="geometry"/>
                </mxCell>
                <mxCell id="FS7tIi85vNFTXQEx-V3D-11" value="API Management" style="text;html=1;strokeColor=none;fillColor=none;align=center;verticalAlign=middle;whiteSpace=wrap;rounded=0;fontSize=25;" parent="1" vertex="1">
                    <mxGeometry x="237.5" y="170" width="230" height="30" as="geometry"/>
                </mxCell>
                <mxCell id="FS7tIi85vNFTXQEx-V3D-14" value="front-end" style="text;html=1;strokeColor=none;fillColor=none;align=center;verticalAlign=middle;whiteSpace=wrap;rounded=0;fontSize=25;" parent="1" vertex="1">
                    <mxGeometry x="30" y="320" width="130" height="30" as="geometry"/>
                </mxCell>
                <mxCell id="FS7tIi85vNFTXQEx-V3D-15" value="back-end" style="text;html=1;strokeColor=none;fillColor=none;align=center;verticalAlign=middle;whiteSpace=wrap;rounded=0;fontSize=25;" parent="1" vertex="1">
                    <mxGeometry x="510" y="240" width="110" height="30" as="geometry"/>
                </mxCell>
                <mxCell id="FS7tIi85vNFTXQEx-V3D-18" style="edgeStyle=orthogonalEdgeStyle;rounded=0;orthogonalLoop=1;jettySize=auto;html=1;entryX=1;entryY=0.75;entryDx=0;entryDy=0;fontSize=25;" parent="1" source="FS7tIi85vNFTXQEx-V3D-16" target="FS7tIi85vNFTXQEx-V3D-5" edge="1">
                    <mxGeometry relative="1" as="geometry">
                        <Array as="points">
                            <mxPoint x="720" y="230"/>
                            <mxPoint x="720" y="353"/>
                        </Array>
                    </mxGeometry>
                </mxCell>
                <mxCell id="FS7tIi85vNFTXQEx-V3D-25" style="edgeStyle=orthogonalEdgeStyle;rounded=0;orthogonalLoop=1;jettySize=auto;html=1;entryX=0;entryY=0.25;entryDx=0;entryDy=0;fontSize=25;" parent="1" source="FS7tIi85vNFTXQEx-V3D-16" target="FS7tIi85vNFTXQEx-V3D-23" edge="1">
                    <mxGeometry relative="1" as="geometry"/>
                </mxCell>
                <mxCell id="FS7tIi85vNFTXQEx-V3D-16" value="Service A" style="rounded=0;whiteSpace=wrap;html=1;fontSize=25;" parent="1" vertex="1">
                    <mxGeometry x="750" y="200" width="120" height="60" as="geometry"/>
                </mxCell>
                <mxCell id="FS7tIi85vNFTXQEx-V3D-22" style="edgeStyle=orthogonalEdgeStyle;rounded=0;orthogonalLoop=1;jettySize=auto;html=1;entryX=1;entryY=1;entryDx=0;entryDy=0;fontSize=25;" parent="1" source="FS7tIi85vNFTXQEx-V3D-19" target="FS7tIi85vNFTXQEx-V3D-5" edge="1">
                    <mxGeometry relative="1" as="geometry"/>
                </mxCell>
                <mxCell id="FS7tIi85vNFTXQEx-V3D-27" style="edgeStyle=orthogonalEdgeStyle;rounded=0;orthogonalLoop=1;jettySize=auto;html=1;entryX=0.5;entryY=0;entryDx=0;entryDy=0;fontSize=25;" parent="1" source="FS7tIi85vNFTXQEx-V3D-19" target="FS7tIi85vNFTXQEx-V3D-24" edge="1">
                    <mxGeometry relative="1" as="geometry"/>
                </mxCell>
                <mxCell id="FS7tIi85vNFTXQEx-V3D-19" value="Service B" style="rounded=0;whiteSpace=wrap;html=1;fontSize=25;" parent="1" vertex="1">
                    <mxGeometry x="750" y="430" width="120" height="60" as="geometry"/>
                </mxCell>
                <mxCell id="FS7tIi85vNFTXQEx-V3D-26" style="edgeStyle=orthogonalEdgeStyle;rounded=0;orthogonalLoop=1;jettySize=auto;html=1;entryX=1;entryY=0.75;entryDx=0;entryDy=0;fontSize=25;" parent="1" source="FS7tIi85vNFTXQEx-V3D-23" target="FS7tIi85vNFTXQEx-V3D-16" edge="1">
                    <mxGeometry relative="1" as="geometry">
                        <Array as="points">
                            <mxPoint x="930" y="190"/>
                            <mxPoint x="930" y="245"/>
                        </Array>
                    </mxGeometry>
                </mxCell>
                <mxCell id="FS7tIi85vNFTXQEx-V3D-23" value="Service X" style="rounded=0;whiteSpace=wrap;html=1;fontSize=25;" parent="1" vertex="1">
                    <mxGeometry x="960" y="160" width="120" height="60" as="geometry"/>
                </mxCell>
                <mxCell id="FS7tIi85vNFTXQEx-V3D-28" style="edgeStyle=orthogonalEdgeStyle;rounded=0;orthogonalLoop=1;jettySize=auto;html=1;entryX=0.75;entryY=1;entryDx=0;entryDy=0;fontSize=25;" parent="1" source="FS7tIi85vNFTXQEx-V3D-24" target="FS7tIi85vNFTXQEx-V3D-19" edge="1">
                    <mxGeometry relative="1" as="geometry"/>
                </mxCell>
                <mxCell id="FS7tIi85vNFTXQEx-V3D-24" value="Service W" style="rounded=0;whiteSpace=wrap;html=1;fontSize=25;" parent="1" vertex="1">
                    <mxGeometry x="960" y="560" width="120" height="60" as="geometry"/>
                </mxCell>
                <mxCell id="FS7tIi85vNFTXQEx-V3D-29" value="&lt;p style=&quot;margin:0in;font-family:Calibri;font-size:18.0pt&quot;&gt;What could the possibility go wrong?&lt;br&gt;&lt;/p&gt;&lt;p style=&quot;margin: 0px;&quot;&gt;&lt;span style=&quot;background-color: initial;&quot;&gt;1 - tight coupling&lt;br&gt;2 - timeouts&lt;/span&gt;&lt;/p&gt;&lt;p style=&quot;margin: 0px;&quot;&gt;&lt;span style=&quot;background-color: initial;&quot;&gt;3 - dependency&lt;/span&gt;&lt;/p&gt;&lt;p style=&quot;margin: 0px;&quot;&gt;&lt;span style=&quot;background-color: initial;&quot;&gt;4 - no asynchronous&lt;/span&gt;&lt;/p&gt;&lt;p style=&quot;margin: 0px;&quot;&gt;&lt;span style=&quot;background-color: initial;&quot;&gt;5 - loose the request&lt;/span&gt;&lt;/p&gt;&lt;p style=&quot;margin: 0px;&quot;&gt;&lt;span style=&quot;background-color: initial;&quot;&gt;6 - scaling issues&lt;/span&gt;&lt;/p&gt;&lt;p style=&quot;margin: 0px;&quot;&gt;&lt;span style=&quot;background-color: initial;&quot;&gt;7 APIM not using Services (X and W)&lt;/span&gt;&lt;/p&gt;" style="text;html=1;strokeColor=none;fillColor=none;align=left;verticalAlign=middle;whiteSpace=wrap;rounded=0;fontSize=25;" parent="1" vertex="1">
                    <mxGeometry x="420" y="640" width="452.5" height="250" as="geometry"/>
                </mxCell>
            </root>
        </mxGraphModel>
    </diagram>
    <diagram id="8drq-XTX_hwoHFiKP4GT" name="Page-4">
        <mxGraphModel dx="817" dy="612" grid="1" gridSize="10" guides="1" tooltips="1" connect="1" arrows="1" fold="1" page="1" pageScale="1" pageWidth="850" pageHeight="1100" math="0" shadow="0">
            <root>
                <mxCell id="0"/>
                <mxCell id="1" parent="0"/>
                <mxCell id="uAw4-F6bw2LKOv5nomdm-11" style="edgeStyle=orthogonalEdgeStyle;rounded=0;orthogonalLoop=1;jettySize=auto;html=1;entryX=0;entryY=0.25;entryDx=0;entryDy=0;fontSize=25;" parent="1" source="uAw4-F6bw2LKOv5nomdm-1" target="uAw4-F6bw2LKOv5nomdm-5" edge="1">
                    <mxGeometry relative="1" as="geometry"/>
                </mxCell>
                <mxCell id="uAw4-F6bw2LKOv5nomdm-1" value="" style="rounded=0;whiteSpace=wrap;html=1;fontSize=20;" parent="1" vertex="1">
                    <mxGeometry x="10" y="350" width="180" height="200" as="geometry"/>
                </mxCell>
                <mxCell id="uAw4-F6bw2LKOv5nomdm-2" value="Mobile client" style="sketch=0;outlineConnect=0;fontColor=#232F3E;gradientColor=none;strokeColor=#232F3E;fillColor=#ffffff;dashed=0;verticalLabelPosition=bottom;verticalAlign=top;align=center;html=1;fontSize=12;fontStyle=0;aspect=fixed;shape=mxgraph.aws4.resourceIcon;resIcon=mxgraph.aws4.mobile_client;" parent="1" vertex="1">
                    <mxGeometry x="100" y="440" width="60" height="60" as="geometry"/>
                </mxCell>
                <mxCell id="uAw4-F6bw2LKOv5nomdm-3" value="Client" style="sketch=0;outlineConnect=0;fontColor=#232F3E;gradientColor=none;strokeColor=#232F3E;fillColor=#ffffff;dashed=0;verticalLabelPosition=bottom;verticalAlign=top;align=center;html=1;fontSize=12;fontStyle=0;aspect=fixed;shape=mxgraph.aws4.resourceIcon;resIcon=mxgraph.aws4.client;" parent="1" vertex="1">
                    <mxGeometry x="50" y="390" width="60" height="60" as="geometry"/>
                </mxCell>
                <mxCell id="uAw4-F6bw2LKOv5nomdm-4" value="front-end" style="text;html=1;strokeColor=none;fillColor=none;align=center;verticalAlign=middle;whiteSpace=wrap;rounded=0;fontSize=25;" parent="1" vertex="1">
                    <mxGeometry x="30" y="320" width="130" height="30" as="geometry"/>
                </mxCell>
                <mxCell id="uAw4-F6bw2LKOv5nomdm-10" style="edgeStyle=orthogonalEdgeStyle;rounded=0;orthogonalLoop=1;jettySize=auto;html=1;entryX=0;entryY=1;entryDx=0;entryDy=-15;entryPerimeter=0;fontSize=25;" parent="1" source="uAw4-F6bw2LKOv5nomdm-5" target="uAw4-F6bw2LKOv5nomdm-9" edge="1">
                    <mxGeometry relative="1" as="geometry"/>
                </mxCell>
                <mxCell id="uAw4-F6bw2LKOv5nomdm-12" style="edgeStyle=orthogonalEdgeStyle;rounded=0;orthogonalLoop=1;jettySize=auto;html=1;entryX=1;entryY=0.75;entryDx=0;entryDy=0;fontSize=25;" parent="1" source="uAw4-F6bw2LKOv5nomdm-5" target="uAw4-F6bw2LKOv5nomdm-1" edge="1">
                    <mxGeometry relative="1" as="geometry">
                        <Array as="points">
                            <mxPoint x="360" y="320"/>
                            <mxPoint x="360" y="500"/>
                        </Array>
                    </mxGeometry>
                </mxCell>
                <mxCell id="uAw4-F6bw2LKOv5nomdm-5" value="API" style="rounded=0;whiteSpace=wrap;html=1;fontSize=25;" parent="1" vertex="1">
                    <mxGeometry x="450" y="280" width="120" height="80" as="geometry"/>
                </mxCell>
                <mxCell id="uAw4-F6bw2LKOv5nomdm-6" value="" style="endArrow=none;html=1;rounded=0;fontSize=25;" parent="1" edge="1">
                    <mxGeometry width="50" height="50" relative="1" as="geometry">
                        <mxPoint x="465" y="329" as="sourcePoint"/>
                        <mxPoint x="535" y="329" as="targetPoint"/>
                    </mxGeometry>
                </mxCell>
                <mxCell id="uAw4-F6bw2LKOv5nomdm-7" value="" style="endArrow=none;html=1;rounded=0;fontSize=25;" parent="1" edge="1">
                    <mxGeometry width="50" height="50" relative="1" as="geometry">
                        <mxPoint x="475" y="339" as="sourcePoint"/>
                        <mxPoint x="545" y="339" as="targetPoint"/>
                    </mxGeometry>
                </mxCell>
                <mxCell id="uAw4-F6bw2LKOv5nomdm-8" value="" style="endArrow=none;html=1;rounded=0;fontSize=25;" parent="1" edge="1">
                    <mxGeometry width="50" height="50" relative="1" as="geometry">
                        <mxPoint x="485" y="349" as="sourcePoint"/>
                        <mxPoint x="555" y="349" as="targetPoint"/>
                    </mxGeometry>
                </mxCell>
                <mxCell id="uAw4-F6bw2LKOv5nomdm-9" value="Queue" style="shape=cylinder3;whiteSpace=wrap;html=1;boundedLbl=1;backgroundOutline=1;size=15;fontSize=25;direction=south;" parent="1" vertex="1">
                    <mxGeometry x="600" y="390" width="230" height="60" as="geometry"/>
                </mxCell>
                <mxCell id="uAw4-F6bw2LKOv5nomdm-13" value="We have received your order" style="text;html=1;strokeColor=none;fillColor=none;align=center;verticalAlign=middle;whiteSpace=wrap;rounded=0;fontSize=25;" parent="1" vertex="1">
                    <mxGeometry x="200" y="510" width="320" height="30" as="geometry"/>
                </mxCell>
            </root>
        </mxGraphModel>
    </diagram>
    <diagram id="Ei6kROiePzmXXg4u6VQA" name="ARB-48037">
        <mxGraphModel dx="1066" dy="612" grid="1" gridSize="10" guides="1" tooltips="1" connect="1" arrows="1" fold="1" page="1" pageScale="1" pageWidth="850" pageHeight="1100" math="0" shadow="0">
            <root>
                <mxCell id="0"/>
                <mxCell id="1" parent="0"/>
                <mxCell id="wfT5mYGK8Rr8FevRc3Xv-3" style="edgeStyle=orthogonalEdgeStyle;rounded=0;orthogonalLoop=1;jettySize=auto;html=1;entryX=0.016;entryY=0.406;entryDx=0;entryDy=0;entryPerimeter=0;" parent="1" source="ts9683Jhu5-45ItCYer3-1" target="wfT5mYGK8Rr8FevRc3Xv-2" edge="1">
                    <mxGeometry relative="1" as="geometry"/>
                </mxCell>
                <mxCell id="wfT5mYGK8Rr8FevRc3Xv-6" style="edgeStyle=orthogonalEdgeStyle;rounded=0;orthogonalLoop=1;jettySize=auto;html=1;" parent="1" source="ts9683Jhu5-45ItCYer3-1" target="wfT5mYGK8Rr8FevRc3Xv-5" edge="1">
                    <mxGeometry relative="1" as="geometry">
                        <Array as="points">
                            <mxPoint x="100" y="560"/>
                            <mxPoint x="592" y="560"/>
                        </Array>
                    </mxGeometry>
                </mxCell>
                <mxCell id="ts9683Jhu5-45ItCYer3-1" value="" style="rounded=0;whiteSpace=wrap;html=1;fontSize=20;" parent="1" vertex="1">
                    <mxGeometry x="10" y="350" width="180" height="200" as="geometry"/>
                </mxCell>
                <mxCell id="ts9683Jhu5-45ItCYer3-2" value="Mobile client" style="sketch=0;outlineConnect=0;fontColor=#232F3E;gradientColor=none;strokeColor=#232F3E;fillColor=#ffffff;dashed=0;verticalLabelPosition=bottom;verticalAlign=top;align=center;html=1;fontSize=12;fontStyle=0;aspect=fixed;shape=mxgraph.aws4.resourceIcon;resIcon=mxgraph.aws4.mobile_client;" parent="1" vertex="1">
                    <mxGeometry x="100" y="440" width="60" height="60" as="geometry"/>
                </mxCell>
                <mxCell id="ts9683Jhu5-45ItCYer3-3" value="Client" style="sketch=0;outlineConnect=0;fontColor=#232F3E;gradientColor=none;strokeColor=#232F3E;fillColor=#ffffff;dashed=0;verticalLabelPosition=bottom;verticalAlign=top;align=center;html=1;fontSize=12;fontStyle=0;aspect=fixed;shape=mxgraph.aws4.resourceIcon;resIcon=mxgraph.aws4.client;" parent="1" vertex="1">
                    <mxGeometry x="50" y="390" width="60" height="60" as="geometry"/>
                </mxCell>
                <mxCell id="wfT5mYGK8Rr8FevRc3Xv-4" style="edgeStyle=orthogonalEdgeStyle;rounded=0;orthogonalLoop=1;jettySize=auto;html=1;entryX=1;entryY=0.75;entryDx=0;entryDy=0;" parent="1" source="wfT5mYGK8Rr8FevRc3Xv-2" target="ts9683Jhu5-45ItCYer3-1" edge="1">
                    <mxGeometry relative="1" as="geometry">
                        <Array as="points">
                            <mxPoint x="440" y="302"/>
                            <mxPoint x="440" y="500"/>
                        </Array>
                    </mxGeometry>
                </mxCell>
                <mxCell id="wfT5mYGK8Rr8FevRc3Xv-2" value="Java back-end" style="aspect=fixed;html=1;points=[];align=center;image;fontSize=12;image=img/lib/azure2/app_services/App_Services.svg;" parent="1" vertex="1">
                    <mxGeometry x="570" y="270" width="64" height="64" as="geometry"/>
                </mxCell>
                <mxCell id="wfT5mYGK8Rr8FevRc3Xv-7" style="edgeStyle=orthogonalEdgeStyle;rounded=0;orthogonalLoop=1;jettySize=auto;html=1;entryX=0.25;entryY=1;entryDx=0;entryDy=0;" parent="1" source="wfT5mYGK8Rr8FevRc3Xv-5" target="ts9683Jhu5-45ItCYer3-1" edge="1">
                    <mxGeometry relative="1" as="geometry"/>
                </mxCell>
                <mxCell id="wfT5mYGK8Rr8FevRc3Xv-5" value=".NET back-end" style="aspect=fixed;html=1;points=[];align=center;image;fontSize=12;image=img/lib/azure2/app_services/App_Services.svg;" parent="1" vertex="1">
                    <mxGeometry x="560" y="600" width="64" height="64" as="geometry"/>
                </mxCell>
                <mxCell id="wfT5mYGK8Rr8FevRc3Xv-9" style="edgeStyle=orthogonalEdgeStyle;rounded=0;orthogonalLoop=1;jettySize=auto;html=1;entryX=0.5;entryY=0;entryDx=0;entryDy=0;" parent="1" source="wfT5mYGK8Rr8FevRc3Xv-8" target="ts9683Jhu5-45ItCYer3-1" edge="1">
                    <mxGeometry relative="1" as="geometry"/>
                </mxCell>
                <mxCell id="wfT5mYGK8Rr8FevRc3Xv-10" style="edgeStyle=orthogonalEdgeStyle;rounded=0;orthogonalLoop=1;jettySize=auto;html=1;entryX=0.75;entryY=0;entryDx=0;entryDy=0;" parent="1" source="wfT5mYGK8Rr8FevRc3Xv-8" target="ts9683Jhu5-45ItCYer3-1" edge="1">
                    <mxGeometry relative="1" as="geometry">
                        <Array as="points">
                            <mxPoint x="592" y="170"/>
                            <mxPoint x="145" y="170"/>
                        </Array>
                    </mxGeometry>
                </mxCell>
                <mxCell id="wfT5mYGK8Rr8FevRc3Xv-8" value="Python back-end" style="aspect=fixed;html=1;points=[];align=center;image;fontSize=12;image=img/lib/azure2/app_services/App_Services.svg;" parent="1" vertex="1">
                    <mxGeometry x="560" y="80" width="64" height="64" as="geometry"/>
                </mxCell>
                <mxCell id="wfT5mYGK8Rr8FevRc3Xv-11" value="What are the potential issues and challenges in this scenario?&lt;br&gt;&lt;br&gt;- security&lt;br&gt;- transaction sync&lt;br&gt;- performance delay&lt;br&gt;- Authentication and authorization&lt;br&gt;- multiple protocal&lt;br&gt;- monitoring and throttling" style="text;html=1;strokeColor=none;fillColor=none;align=left;verticalAlign=middle;whiteSpace=wrap;rounded=0;" parent="1" vertex="1">
                    <mxGeometry x="50" y="710" width="670" height="190" as="geometry"/>
                </mxCell>
            </root>
        </mxGraphModel>
    </diagram>
    <diagram id="NW4wVa-r8jjDr4xzkYSM" name="ARB-48037">
        <mxGraphModel dx="1066" dy="612" grid="1" gridSize="10" guides="1" tooltips="1" connect="1" arrows="1" fold="1" page="1" pageScale="1" pageWidth="850" pageHeight="1100" math="0" shadow="0">
            <root>
                <mxCell id="0"/>
                <mxCell id="1" parent="0"/>
                <mxCell id="tPjAk0IMU9EOqyy26svJ-12" style="edgeStyle=orthogonalEdgeStyle;rounded=0;orthogonalLoop=1;jettySize=auto;html=1;entryX=0.25;entryY=1;entryDx=0;entryDy=0;fontSize=21;" parent="1" source="tPjAk0IMU9EOqyy26svJ-1" target="tPjAk0IMU9EOqyy26svJ-10" edge="1">
                    <mxGeometry relative="1" as="geometry"/>
                </mxCell>
                <mxCell id="tPjAk0IMU9EOqyy26svJ-1" value="" style="rounded=0;whiteSpace=wrap;html=1;fontSize=20;" parent="1" vertex="1">
                    <mxGeometry x="10" y="350" width="180" height="200" as="geometry"/>
                </mxCell>
                <mxCell id="tPjAk0IMU9EOqyy26svJ-2" value="Mobile client" style="sketch=0;outlineConnect=0;fontColor=#232F3E;gradientColor=none;strokeColor=#232F3E;fillColor=#ffffff;dashed=0;verticalLabelPosition=bottom;verticalAlign=top;align=center;html=1;fontSize=12;fontStyle=0;aspect=fixed;shape=mxgraph.aws4.resourceIcon;resIcon=mxgraph.aws4.mobile_client;" parent="1" vertex="1">
                    <mxGeometry x="100" y="440" width="60" height="60" as="geometry"/>
                </mxCell>
                <mxCell id="tPjAk0IMU9EOqyy26svJ-3" value="Client" style="sketch=0;outlineConnect=0;fontColor=#232F3E;gradientColor=none;strokeColor=#232F3E;fillColor=#ffffff;dashed=0;verticalLabelPosition=bottom;verticalAlign=top;align=center;html=1;fontSize=12;fontStyle=0;aspect=fixed;shape=mxgraph.aws4.resourceIcon;resIcon=mxgraph.aws4.client;" parent="1" vertex="1">
                    <mxGeometry x="50" y="390" width="60" height="60" as="geometry"/>
                </mxCell>
                <mxCell id="tPjAk0IMU9EOqyy26svJ-4" value="front-end" style="text;html=1;strokeColor=none;fillColor=none;align=center;verticalAlign=middle;whiteSpace=wrap;rounded=0;fontSize=25;" parent="1" vertex="1">
                    <mxGeometry x="30" y="320" width="130" height="30" as="geometry"/>
                </mxCell>
                <mxCell id="tPjAk0IMU9EOqyy26svJ-14" style="edgeStyle=orthogonalEdgeStyle;rounded=0;orthogonalLoop=1;jettySize=auto;html=1;entryX=0.324;entryY=-0.067;entryDx=0;entryDy=0;entryPerimeter=0;fontSize=21;" parent="1" source="tPjAk0IMU9EOqyy26svJ-5" target="tPjAk0IMU9EOqyy26svJ-10" edge="1">
                    <mxGeometry relative="1" as="geometry"/>
                </mxCell>
                <mxCell id="tPjAk0IMU9EOqyy26svJ-21" style="edgeStyle=orthogonalEdgeStyle;rounded=0;orthogonalLoop=1;jettySize=auto;html=1;entryX=0;entryY=0.5;entryDx=0;entryDy=0;fontSize=21;" parent="1" source="tPjAk0IMU9EOqyy26svJ-5" target="tPjAk0IMU9EOqyy26svJ-16" edge="1">
                    <mxGeometry relative="1" as="geometry"/>
                </mxCell>
                <mxCell id="tPjAk0IMU9EOqyy26svJ-24" style="edgeStyle=orthogonalEdgeStyle;rounded=0;orthogonalLoop=1;jettySize=auto;html=1;entryX=0;entryY=0.5;entryDx=0;entryDy=0;fontSize=21;" parent="1" source="tPjAk0IMU9EOqyy26svJ-5" target="tPjAk0IMU9EOqyy26svJ-23" edge="1">
                    <mxGeometry relative="1" as="geometry">
                        <Array as="points">
                            <mxPoint x="725" y="450"/>
                            <mxPoint x="725" y="530"/>
                        </Array>
                    </mxGeometry>
                </mxCell>
                <mxCell id="tPjAk0IMU9EOqyy26svJ-5" value="&lt;font style=&quot;font-size: 21px;&quot;&gt;main&lt;br&gt;API&lt;/font&gt;" style="rounded=0;whiteSpace=wrap;html=1;" parent="1" vertex="1">
                    <mxGeometry x="540" y="320" width="120" height="130" as="geometry"/>
                </mxCell>
                <mxCell id="tPjAk0IMU9EOqyy26svJ-6" value="" style="endArrow=none;html=1;rounded=0;fontSize=21;" parent="1" edge="1">
                    <mxGeometry width="50" height="50" relative="1" as="geometry">
                        <mxPoint x="550" y="419" as="sourcePoint"/>
                        <mxPoint x="630" y="419" as="targetPoint"/>
                    </mxGeometry>
                </mxCell>
                <mxCell id="tPjAk0IMU9EOqyy26svJ-7" value="" style="endArrow=none;html=1;rounded=0;fontSize=21;" parent="1" edge="1">
                    <mxGeometry width="50" height="50" relative="1" as="geometry">
                        <mxPoint x="560" y="429" as="sourcePoint"/>
                        <mxPoint x="640" y="429" as="targetPoint"/>
                    </mxGeometry>
                </mxCell>
                <mxCell id="tPjAk0IMU9EOqyy26svJ-8" value="" style="endArrow=none;html=1;rounded=0;fontSize=21;" parent="1" edge="1">
                    <mxGeometry width="50" height="50" relative="1" as="geometry">
                        <mxPoint x="570" y="439" as="sourcePoint"/>
                        <mxPoint x="650" y="439" as="targetPoint"/>
                    </mxGeometry>
                </mxCell>
                <mxCell id="tPjAk0IMU9EOqyy26svJ-13" style="edgeStyle=orthogonalEdgeStyle;rounded=0;orthogonalLoop=1;jettySize=auto;html=1;entryX=0;entryY=0.25;entryDx=0;entryDy=0;fontSize=21;" parent="1" source="tPjAk0IMU9EOqyy26svJ-10" target="tPjAk0IMU9EOqyy26svJ-5" edge="1">
                    <mxGeometry relative="1" as="geometry">
                        <Array as="points">
                            <mxPoint x="455" y="360"/>
                            <mxPoint x="455" y="353"/>
                        </Array>
                    </mxGeometry>
                </mxCell>
                <mxCell id="tPjAk0IMU9EOqyy26svJ-15" style="edgeStyle=orthogonalEdgeStyle;rounded=0;orthogonalLoop=1;jettySize=auto;html=1;entryX=1;entryY=0.75;entryDx=0;entryDy=0;fontSize=21;" parent="1" source="tPjAk0IMU9EOqyy26svJ-10" target="tPjAk0IMU9EOqyy26svJ-1" edge="1">
                    <mxGeometry relative="1" as="geometry"/>
                </mxCell>
                <mxCell id="tPjAk0IMU9EOqyy26svJ-10" value="" style="rounded=0;whiteSpace=wrap;html=1;fontSize=21;direction=south;" parent="1" vertex="1">
                    <mxGeometry x="310" y="240" width="60" height="490" as="geometry"/>
                </mxCell>
                <mxCell id="tPjAk0IMU9EOqyy26svJ-11" value="APIM" style="text;html=1;strokeColor=none;fillColor=none;align=center;verticalAlign=middle;whiteSpace=wrap;rounded=0;fontSize=21;" parent="1" vertex="1">
                    <mxGeometry x="310" y="150" width="60" height="30" as="geometry"/>
                </mxCell>
                <mxCell id="tPjAk0IMU9EOqyy26svJ-22" style="edgeStyle=orthogonalEdgeStyle;rounded=0;orthogonalLoop=1;jettySize=auto;html=1;entryX=1;entryY=0.75;entryDx=0;entryDy=0;fontSize=21;" parent="1" source="tPjAk0IMU9EOqyy26svJ-16" target="tPjAk0IMU9EOqyy26svJ-5" edge="1">
                    <mxGeometry relative="1" as="geometry">
                        <Array as="points">
                            <mxPoint x="760" y="260"/>
                            <mxPoint x="760" y="418"/>
                        </Array>
                    </mxGeometry>
                </mxCell>
                <mxCell id="tPjAk0IMU9EOqyy26svJ-27" style="edgeStyle=orthogonalEdgeStyle;rounded=0;orthogonalLoop=1;jettySize=auto;html=1;entryX=0;entryY=0.5;entryDx=0;entryDy=0;fontSize=21;" parent="1" source="tPjAk0IMU9EOqyy26svJ-16" target="tPjAk0IMU9EOqyy26svJ-26" edge="1">
                    <mxGeometry relative="1" as="geometry"/>
                </mxCell>
                <mxCell id="tPjAk0IMU9EOqyy26svJ-16" value="Service-A" style="rounded=1;whiteSpace=wrap;html=1;fontSize=21;" parent="1" vertex="1">
                    <mxGeometry x="800" y="210" width="120" height="60" as="geometry"/>
                </mxCell>
                <mxCell id="tPjAk0IMU9EOqyy26svJ-25" style="edgeStyle=orthogonalEdgeStyle;rounded=0;orthogonalLoop=1;jettySize=auto;html=1;entryX=0.5;entryY=1;entryDx=0;entryDy=0;fontSize=21;" parent="1" source="tPjAk0IMU9EOqyy26svJ-23" target="tPjAk0IMU9EOqyy26svJ-5" edge="1">
                    <mxGeometry relative="1" as="geometry">
                        <Array as="points">
                            <mxPoint x="600" y="550"/>
                        </Array>
                    </mxGeometry>
                </mxCell>
                <mxCell id="tPjAk0IMU9EOqyy26svJ-23" value="Service-B" style="rounded=1;whiteSpace=wrap;html=1;fontSize=21;" parent="1" vertex="1">
                    <mxGeometry x="790" y="500" width="120" height="60" as="geometry"/>
                </mxCell>
                <mxCell id="tPjAk0IMU9EOqyy26svJ-28" style="edgeStyle=orthogonalEdgeStyle;rounded=0;orthogonalLoop=1;jettySize=auto;html=1;entryX=1;entryY=0.75;entryDx=0;entryDy=0;fontSize=21;" parent="1" source="tPjAk0IMU9EOqyy26svJ-26" target="tPjAk0IMU9EOqyy26svJ-16" edge="1">
                    <mxGeometry relative="1" as="geometry">
                        <Array as="points">
                            <mxPoint x="1000" y="100"/>
                            <mxPoint x="1000" y="255"/>
                        </Array>
                    </mxGeometry>
                </mxCell>
                <mxCell id="tPjAk0IMU9EOqyy26svJ-26" value="Service-C" style="rounded=1;whiteSpace=wrap;html=1;fontSize=21;" parent="1" vertex="1">
                    <mxGeometry x="1020" y="70" width="120" height="60" as="geometry"/>
                </mxCell>
                <mxCell id="tPjAk0IMU9EOqyy26svJ-29" value="&lt;span style=&quot;font-weight:bold&quot;&gt;What could possibly go wrong?&lt;/span&gt;" style="text;html=1;strokeColor=none;fillColor=none;align=center;verticalAlign=middle;whiteSpace=wrap;rounded=0;fontSize=21;" parent="1" vertex="1">
                    <mxGeometry x="350" y="10" width="390" height="30" as="geometry"/>
                </mxCell>
                <mxCell id="tPjAk0IMU9EOqyy26svJ-31" value="1. multiple point of failure&lt;br&gt;2. security compromise&lt;br&gt;3. data loss&lt;br&gt;4. latency&lt;br&gt;5. timeout&lt;br&gt;6. monolitic design" style="text;html=1;strokeColor=none;fillColor=none;align=left;verticalAlign=middle;whiteSpace=wrap;rounded=0;fontSize=21;" parent="1" vertex="1">
                    <mxGeometry x="445" y="50" width="345" height="150" as="geometry"/>
                </mxCell>
                <mxCell id="tPjAk0IMU9EOqyy26svJ-37" style="edgeStyle=orthogonalEdgeStyle;rounded=0;orthogonalLoop=1;jettySize=auto;html=1;entryX=0;entryY=1;entryDx=0;entryDy=-15;entryPerimeter=0;fontSize=21;" parent="1" source="tPjAk0IMU9EOqyy26svJ-32" target="tPjAk0IMU9EOqyy26svJ-36" edge="1">
                    <mxGeometry relative="1" as="geometry"/>
                </mxCell>
                <mxCell id="tPjAk0IMU9EOqyy26svJ-32" value="" style="rounded=0;whiteSpace=wrap;html=1;fontSize=20;" parent="1" vertex="1">
                    <mxGeometry x="50" y="1040" width="180" height="200" as="geometry"/>
                </mxCell>
                <mxCell id="tPjAk0IMU9EOqyy26svJ-33" value="Mobile client" style="sketch=0;outlineConnect=0;fontColor=#232F3E;gradientColor=none;strokeColor=#232F3E;fillColor=#ffffff;dashed=0;verticalLabelPosition=bottom;verticalAlign=top;align=center;html=1;fontSize=12;fontStyle=0;aspect=fixed;shape=mxgraph.aws4.resourceIcon;resIcon=mxgraph.aws4.mobile_client;" parent="1" vertex="1">
                    <mxGeometry x="140" y="1130" width="60" height="60" as="geometry"/>
                </mxCell>
                <mxCell id="tPjAk0IMU9EOqyy26svJ-34" value="Client" style="sketch=0;outlineConnect=0;fontColor=#232F3E;gradientColor=none;strokeColor=#232F3E;fillColor=#ffffff;dashed=0;verticalLabelPosition=bottom;verticalAlign=top;align=center;html=1;fontSize=12;fontStyle=0;aspect=fixed;shape=mxgraph.aws4.resourceIcon;resIcon=mxgraph.aws4.client;" parent="1" vertex="1">
                    <mxGeometry x="90" y="1080" width="60" height="60" as="geometry"/>
                </mxCell>
                <mxCell id="tPjAk0IMU9EOqyy26svJ-35" value="front-end" style="text;html=1;strokeColor=none;fillColor=none;align=center;verticalAlign=middle;whiteSpace=wrap;rounded=0;fontSize=25;" parent="1" vertex="1">
                    <mxGeometry x="70" y="1010" width="130" height="30" as="geometry"/>
                </mxCell>
                <mxCell id="tPjAk0IMU9EOqyy26svJ-36" value="" style="shape=cylinder3;whiteSpace=wrap;html=1;boundedLbl=1;backgroundOutline=1;size=15;fontSize=21;rotation=89;" parent="1" vertex="1">
                    <mxGeometry x="530" y="880" width="60" height="431.57" as="geometry"/>
                </mxCell>
                <mxCell id="tPjAk0IMU9EOqyy26svJ-39" style="edgeStyle=orthogonalEdgeStyle;rounded=0;orthogonalLoop=1;jettySize=auto;html=1;entryX=0;entryY=0;entryDx=0;entryDy=15;entryPerimeter=0;fontSize=21;" parent="1" source="tPjAk0IMU9EOqyy26svJ-38" target="tPjAk0IMU9EOqyy26svJ-36" edge="1">
                    <mxGeometry relative="1" as="geometry"/>
                </mxCell>
                <mxCell id="tPjAk0IMU9EOqyy26svJ-38" value="" style="rounded=1;whiteSpace=wrap;html=1;fontSize=21;" parent="1" vertex="1">
                    <mxGeometry x="960" y="1050" width="120" height="60" as="geometry"/>
                </mxCell>
            </root>
        </mxGraphModel>
    </diagram>
    <diagram id="5oK_sgCOsqYGFOlo5jsp" name="ARB-48091-WebApp">
        <mxGraphModel dx="817" dy="612" grid="1" gridSize="10" guides="1" tooltips="1" connect="1" arrows="1" fold="1" page="1" pageScale="1" pageWidth="850" pageHeight="1100" math="0" shadow="0">
            <root>
                <mxCell id="0"/>
                <mxCell id="1" parent="0"/>
                <mxCell id="XZaF6ZuN328kpRNNPQc_-7" style="edgeStyle=none;html=1;" parent="1" source="XZaF6ZuN328kpRNNPQc_-1" target="XZaF6ZuN328kpRNNPQc_-5" edge="1">
                    <mxGeometry relative="1" as="geometry"/>
                </mxCell>
                <mxCell id="XZaF6ZuN328kpRNNPQc_-1" value="Java App" style="aspect=fixed;html=1;points=[];align=center;image;fontSize=12;image=img/lib/azure2/app_services/App_Services.svg;" parent="1" vertex="1">
                    <mxGeometry x="520" y="150" width="140" height="140" as="geometry"/>
                </mxCell>
                <mxCell id="XZaF6ZuN328kpRNNPQc_-8" style="edgeStyle=none;html=1;" parent="1" source="XZaF6ZuN328kpRNNPQc_-2" edge="1">
                    <mxGeometry relative="1" as="geometry">
                        <mxPoint x="270" y="410" as="targetPoint"/>
                    </mxGeometry>
                </mxCell>
                <mxCell id="XZaF6ZuN328kpRNNPQc_-2" value=".NET App" style="aspect=fixed;html=1;points=[];align=center;image;fontSize=12;image=img/lib/azure2/app_services/App_Services.svg;" parent="1" vertex="1">
                    <mxGeometry x="520" y="330" width="140" height="140" as="geometry"/>
                </mxCell>
                <mxCell id="XZaF6ZuN328kpRNNPQc_-9" style="edgeStyle=none;html=1;" parent="1" source="XZaF6ZuN328kpRNNPQc_-3" edge="1">
                    <mxGeometry relative="1" as="geometry">
                        <mxPoint x="270" y="450" as="targetPoint"/>
                    </mxGeometry>
                </mxCell>
                <mxCell id="XZaF6ZuN328kpRNNPQc_-3" value="Python App" style="aspect=fixed;html=1;points=[];align=center;image;fontSize=12;image=img/lib/azure2/app_services/App_Services.svg;" parent="1" vertex="1">
                    <mxGeometry x="520" y="510" width="140" height="140" as="geometry"/>
                </mxCell>
                <mxCell id="XZaF6ZuN328kpRNNPQc_-4" value="Compute (vCPU and Memory)&lt;br&gt;Storage&lt;br&gt;Networking&lt;br&gt;" style="text;html=1;strokeColor=none;fillColor=none;align=left;verticalAlign=middle;whiteSpace=wrap;rounded=0;" parent="1" vertex="1">
                    <mxGeometry x="90" y="100" width="180" height="60" as="geometry"/>
                </mxCell>
                <mxCell id="XZaF6ZuN328kpRNNPQc_-5" value="App Service Plan" style="aspect=fixed;html=1;points=[];align=center;image;fontSize=12;image=img/lib/azure2/app_services/App_Service_Plans.svg;" parent="1" vertex="1">
                    <mxGeometry x="95" y="300" width="170" height="170" as="geometry"/>
                </mxCell>
                <mxCell id="XZaF6ZuN328kpRNNPQc_-6" value="Compute resources" style="text;html=1;strokeColor=none;fillColor=none;align=center;verticalAlign=middle;whiteSpace=wrap;rounded=0;" parent="1" vertex="1">
                    <mxGeometry x="200" y="160" width="60" height="30" as="geometry"/>
                </mxCell>
            </root>
        </mxGraphModel>
    </diagram>
    <diagram id="Dw7j5SUWdPuexAAMertO" name="ARB-48091-APIM">
        <mxGraphModel dx="888" dy="510" grid="1" gridSize="10" guides="1" tooltips="1" connect="1" arrows="1" fold="1" page="1" pageScale="1" pageWidth="850" pageHeight="1100" math="0" shadow="0">
            <root>
                <mxCell id="0"/>
                <mxCell id="1" parent="0"/>
                <mxCell id="sJEnTBM5P1r1t7iUzBGy-5" style="edgeStyle=none;html=1;entryX=0;entryY=0.5;entryDx=0;entryDy=0;" edge="1" parent="1" source="sJEnTBM5P1r1t7iUzBGy-1" target="sJEnTBM5P1r1t7iUzBGy-4">
                    <mxGeometry relative="1" as="geometry"/>
                </mxCell>
                <mxCell id="sJEnTBM5P1r1t7iUzBGy-8" style="edgeStyle=none;html=1;entryX=0;entryY=0.25;entryDx=0;entryDy=0;" edge="1" parent="1" source="sJEnTBM5P1r1t7iUzBGy-1" target="sJEnTBM5P1r1t7iUzBGy-7">
                    <mxGeometry relative="1" as="geometry"/>
                </mxCell>
                <mxCell id="sJEnTBM5P1r1t7iUzBGy-1" value="" style="rounded=0;whiteSpace=wrap;html=1;fontSize=20;" vertex="1" parent="1">
                    <mxGeometry x="10" y="350" width="180" height="200" as="geometry"/>
                </mxCell>
                <mxCell id="sJEnTBM5P1r1t7iUzBGy-2" value="Mobile client" style="sketch=0;outlineConnect=0;fontColor=#232F3E;gradientColor=none;strokeColor=#232F3E;fillColor=#ffffff;dashed=0;verticalLabelPosition=bottom;verticalAlign=top;align=center;html=1;fontSize=12;fontStyle=0;aspect=fixed;shape=mxgraph.aws4.resourceIcon;resIcon=mxgraph.aws4.mobile_client;" vertex="1" parent="1">
                    <mxGeometry x="100" y="440" width="60" height="60" as="geometry"/>
                </mxCell>
                <mxCell id="sJEnTBM5P1r1t7iUzBGy-3" value="Client" style="sketch=0;outlineConnect=0;fontColor=#232F3E;gradientColor=none;strokeColor=#232F3E;fillColor=#ffffff;dashed=0;verticalLabelPosition=bottom;verticalAlign=top;align=center;html=1;fontSize=12;fontStyle=0;aspect=fixed;shape=mxgraph.aws4.resourceIcon;resIcon=mxgraph.aws4.client;" vertex="1" parent="1">
                    <mxGeometry x="50" y="390" width="60" height="60" as="geometry"/>
                </mxCell>
                <mxCell id="sJEnTBM5P1r1t7iUzBGy-6" style="edgeStyle=none;html=1;entryX=1;entryY=0.5;entryDx=0;entryDy=0;" edge="1" parent="1" source="sJEnTBM5P1r1t7iUzBGy-4" target="sJEnTBM5P1r1t7iUzBGy-1">
                    <mxGeometry relative="1" as="geometry"/>
                </mxCell>
                <mxCell id="sJEnTBM5P1r1t7iUzBGy-4" value="Java&lt;br&gt;back-end" style="rounded=0;whiteSpace=wrap;html=1;" vertex="1" parent="1">
                    <mxGeometry x="470" y="280" width="120" height="60" as="geometry"/>
                </mxCell>
                <mxCell id="sJEnTBM5P1r1t7iUzBGy-9" style="edgeStyle=none;html=1;entryX=1;entryY=0.75;entryDx=0;entryDy=0;" edge="1" parent="1" source="sJEnTBM5P1r1t7iUzBGy-7" target="sJEnTBM5P1r1t7iUzBGy-1">
                    <mxGeometry relative="1" as="geometry"/>
                </mxCell>
                <mxCell id="sJEnTBM5P1r1t7iUzBGy-7" value=".NET&lt;br&gt;back-end" style="rounded=0;whiteSpace=wrap;html=1;" vertex="1" parent="1">
                    <mxGeometry x="470" y="540" width="120" height="60" as="geometry"/>
                </mxCell>
                <mxCell id="sJEnTBM5P1r1t7iUzBGy-10" value="What are the potential issues and challenges in this scenario?&lt;br&gt;- Data dependency between back ends&lt;br&gt;- security&lt;br&gt;- compatibility issues&lt;br&gt;- consistent&lt;br&gt;- maintainnability&lt;br&gt;- versioning" style="text;html=1;strokeColor=none;fillColor=none;align=left;verticalAlign=middle;whiteSpace=wrap;rounded=0;" vertex="1" parent="1">
                    <mxGeometry x="10" y="100" width="730" height="90" as="geometry"/>
                </mxCell>
            </root>
        </mxGraphModel>
    </diagram>
    <diagram id="7mMCb7CUjJUyq8UXCEVq" name="Page-9">
        <mxGraphModel dx="1066" dy="612" grid="1" gridSize="10" guides="1" tooltips="1" connect="1" arrows="1" fold="1" page="1" pageScale="1" pageWidth="850" pageHeight="1100" math="0" shadow="0">
            <root>
                <mxCell id="0"/>
                <mxCell id="1" parent="0"/>
                <mxCell id="1dLKoFWgUmv08HNhEzRD-12" style="edgeStyle=none;html=1;entryX=0;entryY=0.25;entryDx=0;entryDy=0;" parent="1" source="1dLKoFWgUmv08HNhEzRD-1" target="1dLKoFWgUmv08HNhEzRD-10" edge="1">
                    <mxGeometry relative="1" as="geometry"/>
                </mxCell>
                <mxCell id="1dLKoFWgUmv08HNhEzRD-1" value="Client&lt;br&gt;front-end" style="rounded=0;whiteSpace=wrap;html=1;" parent="1" vertex="1">
                    <mxGeometry x="90" y="220" width="120" height="60" as="geometry"/>
                </mxCell>
                <mxCell id="1dLKoFWgUmv08HNhEzRD-8" style="edgeStyle=none;html=1;entryX=0;entryY=0.25;entryDx=0;entryDy=0;" parent="1" source="1dLKoFWgUmv08HNhEzRD-2" target="1dLKoFWgUmv08HNhEzRD-7" edge="1">
                    <mxGeometry relative="1" as="geometry"/>
                </mxCell>
                <mxCell id="1dLKoFWgUmv08HNhEzRD-2" value="Service X" style="rounded=0;whiteSpace=wrap;html=1;" parent="1" vertex="1">
                    <mxGeometry x="490" y="150" width="120" height="60" as="geometry"/>
                </mxCell>
                <mxCell id="1dLKoFWgUmv08HNhEzRD-3" value="" style="rounded=0;whiteSpace=wrap;html=1;" parent="1" vertex="1">
                    <mxGeometry x="310" y="70" width="90" height="440" as="geometry"/>
                </mxCell>
                <mxCell id="1dLKoFWgUmv08HNhEzRD-4" value="APIM" style="text;html=1;strokeColor=none;fillColor=none;align=center;verticalAlign=middle;whiteSpace=wrap;rounded=0;" parent="1" vertex="1">
                    <mxGeometry x="325" y="85" width="60" height="30" as="geometry"/>
                </mxCell>
                <mxCell id="1dLKoFWgUmv08HNhEzRD-5" value="" style="curved=1;endArrow=classic;html=1;exitX=1;exitY=0.25;exitDx=0;exitDy=0;entryX=0;entryY=0.25;entryDx=0;entryDy=0;" parent="1" source="1dLKoFWgUmv08HNhEzRD-1" target="1dLKoFWgUmv08HNhEzRD-2" edge="1">
                    <mxGeometry width="50" height="50" relative="1" as="geometry">
                        <mxPoint x="400" y="330" as="sourcePoint"/>
                        <mxPoint x="450" y="280" as="targetPoint"/>
                        <Array as="points">
                            <mxPoint x="290" y="200"/>
                            <mxPoint x="340" y="200"/>
                            <mxPoint x="400" y="220"/>
                            <mxPoint x="420" y="190"/>
                        </Array>
                    </mxGeometry>
                </mxCell>
                <mxCell id="1dLKoFWgUmv08HNhEzRD-6" value="" style="curved=1;endArrow=classic;html=1;exitX=0.25;exitY=1;exitDx=0;exitDy=0;entryX=1;entryY=0.5;entryDx=0;entryDy=0;" parent="1" source="1dLKoFWgUmv08HNhEzRD-2" target="1dLKoFWgUmv08HNhEzRD-1" edge="1">
                    <mxGeometry width="50" height="50" relative="1" as="geometry">
                        <mxPoint x="400" y="330" as="sourcePoint"/>
                        <mxPoint x="450" y="280" as="targetPoint"/>
                        <Array as="points">
                            <mxPoint x="400" y="280"/>
                        </Array>
                    </mxGeometry>
                </mxCell>
                <mxCell id="1dLKoFWgUmv08HNhEzRD-9" style="edgeStyle=none;html=1;entryX=1;entryY=0.5;entryDx=0;entryDy=0;" parent="1" source="1dLKoFWgUmv08HNhEzRD-7" target="1dLKoFWgUmv08HNhEzRD-2" edge="1">
                    <mxGeometry relative="1" as="geometry"/>
                </mxCell>
                <mxCell id="1dLKoFWgUmv08HNhEzRD-18" style="edgeStyle=none;html=1;entryX=0;entryY=0.25;entryDx=0;entryDy=0;" parent="1" source="1dLKoFWgUmv08HNhEzRD-7" target="1dLKoFWgUmv08HNhEzRD-17" edge="1">
                    <mxGeometry relative="1" as="geometry"/>
                </mxCell>
                <mxCell id="1dLKoFWgUmv08HNhEzRD-7" value="Service A" style="rounded=0;whiteSpace=wrap;html=1;" parent="1" vertex="1">
                    <mxGeometry x="690" y="70" width="120" height="60" as="geometry"/>
                </mxCell>
                <mxCell id="1dLKoFWgUmv08HNhEzRD-14" style="edgeStyle=none;html=1;entryX=0;entryY=0.25;entryDx=0;entryDy=0;" parent="1" source="1dLKoFWgUmv08HNhEzRD-10" target="1dLKoFWgUmv08HNhEzRD-13" edge="1">
                    <mxGeometry relative="1" as="geometry"/>
                </mxCell>
                <mxCell id="1dLKoFWgUmv08HNhEzRD-16" style="edgeStyle=none;html=1;entryX=1;entryY=0.75;entryDx=0;entryDy=0;" parent="1" source="1dLKoFWgUmv08HNhEzRD-10" target="1dLKoFWgUmv08HNhEzRD-1" edge="1">
                    <mxGeometry relative="1" as="geometry"/>
                </mxCell>
                <mxCell id="1dLKoFWgUmv08HNhEzRD-10" value="Service Y" style="rounded=0;whiteSpace=wrap;html=1;" parent="1" vertex="1">
                    <mxGeometry x="490" y="280" width="120" height="60" as="geometry"/>
                </mxCell>
                <mxCell id="1dLKoFWgUmv08HNhEzRD-15" style="edgeStyle=none;html=1;entryX=1;entryY=0.5;entryDx=0;entryDy=0;" parent="1" source="1dLKoFWgUmv08HNhEzRD-13" target="1dLKoFWgUmv08HNhEzRD-10" edge="1">
                    <mxGeometry relative="1" as="geometry"/>
                </mxCell>
                <mxCell id="1dLKoFWgUmv08HNhEzRD-13" value="Service B" style="rounded=0;whiteSpace=wrap;html=1;" parent="1" vertex="1">
                    <mxGeometry x="680" y="240" width="120" height="60" as="geometry"/>
                </mxCell>
                <mxCell id="1dLKoFWgUmv08HNhEzRD-19" style="edgeStyle=none;html=1;entryX=1;entryY=0.5;entryDx=0;entryDy=0;" parent="1" source="1dLKoFWgUmv08HNhEzRD-17" target="1dLKoFWgUmv08HNhEzRD-7" edge="1">
                    <mxGeometry relative="1" as="geometry"/>
                </mxCell>
                <mxCell id="1dLKoFWgUmv08HNhEzRD-17" value="" style="rounded=0;whiteSpace=wrap;html=1;" parent="1" vertex="1">
                    <mxGeometry x="880" y="10" width="120" height="60" as="geometry"/>
                </mxCell>
            </root>
        </mxGraphModel>
    </diagram>
    <diagram id="RNUsh6ccNYUL2OfdqTVt" name="ARB-48929">
        <mxGraphModel dx="1066" dy="1569" grid="1" gridSize="10" guides="1" tooltips="1" connect="1" arrows="1" fold="1" page="1" pageScale="1" pageWidth="850" pageHeight="1100" math="0" shadow="0">
            <root>
                <mxCell id="0"/>
                <mxCell id="1" parent="0"/>
                <mxCell id="pDBABeO6cWvz-9PAf1Mm-6" style="edgeStyle=none;html=1;" edge="1" parent="1" source="pDBABeO6cWvz-9PAf1Mm-1" target="pDBABeO6cWvz-9PAf1Mm-5">
                    <mxGeometry relative="1" as="geometry"/>
                </mxCell>
                <mxCell id="pDBABeO6cWvz-9PAf1Mm-1" value=".NET APP" style="aspect=fixed;html=1;points=[];align=center;image;fontSize=12;image=img/lib/azure2/app_services/App_Services.svg;" vertex="1" parent="1">
                    <mxGeometry x="550" y="60" width="64" height="64" as="geometry"/>
                </mxCell>
                <mxCell id="pDBABeO6cWvz-9PAf1Mm-7" style="edgeStyle=none;html=1;" edge="1" parent="1" source="pDBABeO6cWvz-9PAf1Mm-2">
                    <mxGeometry relative="1" as="geometry">
                        <mxPoint x="180" y="210" as="targetPoint"/>
                    </mxGeometry>
                </mxCell>
                <mxCell id="pDBABeO6cWvz-9PAf1Mm-2" value="Java App" style="aspect=fixed;html=1;points=[];align=center;image;fontSize=12;image=img/lib/azure2/app_services/App_Services.svg;" vertex="1" parent="1">
                    <mxGeometry x="550" y="190" width="64" height="64" as="geometry"/>
                </mxCell>
                <mxCell id="pDBABeO6cWvz-9PAf1Mm-8" style="edgeStyle=none;html=1;" edge="1" parent="1" source="pDBABeO6cWvz-9PAf1Mm-3">
                    <mxGeometry relative="1" as="geometry">
                        <mxPoint x="180" y="240" as="targetPoint"/>
                    </mxGeometry>
                </mxCell>
                <mxCell id="pDBABeO6cWvz-9PAf1Mm-3" value="Python App" style="aspect=fixed;html=1;points=[];align=center;image;fontSize=12;image=img/lib/azure2/app_services/App_Services.svg;" vertex="1" parent="1">
                    <mxGeometry x="550" y="320" width="64" height="64" as="geometry"/>
                </mxCell>
                <mxCell id="pDBABeO6cWvz-9PAf1Mm-4" value="VM - IaaS&lt;br&gt;- OS&lt;br&gt;- Storage&lt;br&gt;- Networking&lt;br&gt;- Memory&lt;br&gt;- CPU - vCPU&lt;br&gt;- Patching" style="text;html=1;strokeColor=none;fillColor=none;align=left;verticalAlign=middle;whiteSpace=wrap;rounded=0;" vertex="1" parent="1">
                    <mxGeometry x="90" y="-10" width="210" height="100" as="geometry"/>
                </mxCell>
                <mxCell id="pDBABeO6cWvz-9PAf1Mm-5" value="App S. Plan" style="aspect=fixed;html=1;points=[];align=center;image;fontSize=12;image=img/lib/azure2/app_services/App_Service_Plans.svg;" vertex="1" parent="1">
                    <mxGeometry x="110" y="160" width="64" height="64" as="geometry"/>
                </mxCell>
            </root>
        </mxGraphModel>
    </diagram>
</mxfile>